<svg width="35" height="37" viewBox="0 0 35 37" fill="none" xmlns="http://www.w3.org/2000/svg">
<path d="M1.63682 13.2428C1.49976 13.6922 1.02978 13.9432 0.588328 13.8026C0.146871 13.6621 -0.0997307 13.1847 0.0383505 12.7353C1.1964 8.99732 3.50583 5.77997 6.54181 3.51506C9.50416 1.30584 13.157 0 17.1063 0C22.0474 0 26.5203 2.03862 29.7588 5.33509C32.9973 8.63156 35 13.1853 35 18.2143C35 23.244 32.9973 27.797 29.7588 31.0935C26.5203 34.39 22.0468 36.4286 17.1063 36.4286C13.1566 36.4286 9.50376 35.1238 6.54181 32.9135C3.50583 30.6485 1.1964 27.4311 0.0383505 23.6932C-0.0997176 23.2439 0.147888 22.7665 0.588328 22.626C1.02978 22.4864 1.49876 22.7375 1.63682 23.1858C2.6853 26.5704 4.77798 29.4854 7.53119 31.5398C10.212 33.5393 13.5229 34.7204 17.1057 34.7204C21.5835 34.7204 25.6381 32.8726 28.5733 29.886C31.5074 26.8994 33.3226 22.772 33.3226 18.2143C33.3226 13.6563 31.5074 9.529 28.5733 6.54253C25.6393 3.55486 21.5845 1.70815 17.1057 1.70815C13.5221 1.70815 10.2121 2.88926 7.53119 4.88872C4.77798 6.94187 2.6853 9.85692 1.63682 13.2427V13.2428ZM23.3096 19.0688H8.35045C7.88709 19.0688 7.51234 18.6863 7.51234 18.2146C7.51234 17.743 7.88808 17.3605 8.35045 17.3605H23.3096L17.5566 11.8626C17.2203 11.5403 17.2038 11.0017 17.5204 10.6581C17.837 10.3159 18.3662 10.299 18.7037 10.6213L25.999 17.5939C26.3353 17.9163 26.3518 18.4548 26.0352 18.7984L25.999 18.8352L18.7037 25.8079C18.3674 26.1302 17.8371 26.1133 17.5204 25.7711C17.2038 25.4288 17.2203 24.8889 17.5566 24.5666L23.3096 19.0687V19.0688Z" fill="white"/>
</svg>
